<?xml version="1.0" encoding="UTF-8"?>
<svg version="1.1" viewBox="0 0 2048 919" width="1280" height="1280" xmlns="http://www.w3.org/2000/svg">
<path transform="translate(1029,174)" d="m0 0h19l15 2 18 5 16 8 16 10 13 12 9 11 9 14 7 15 4 12 3 14 1 10v12l-1 11-4 18-6 16-6 11-6 9-8 10-7 8-18 13-19 10-12 4-12 3-10 1h-24l-16-3-9-2-12-5-12-6-11-8-11-9-10-11-9-13-6-11-6-15-4-16-1-8v-23l3-19 6-17 8-16 10-14 17-17 15-10 14-7 11-4 16-4zm86 97-1 6 1 6h2v-12zm-148 2-2 1v2l5-1v-2zm149 14 1 3zm-155 1 2 4 3 3 3-1v-2l-4-1v-2zm11 14 1 4 1-3zm154 0-1 2v7l3-2v-6zm-152 6-1 4 2 7v9l4-2v-7l-3-10zm12 20v3h2l-1-3zm112 1-6 6v2l4-2 4-5zm-111 5-5 4-3 3 7 2 16 13 3 2h3l-1 7 2 4h2v-11l2-2-1-3-4 2-11-9-7-5h-2l1-6z" fill="#63AB2C"/>
<path transform="translate(922,131)" d="m0 0h234l10 2 12 6 9 8 6 9 3 8 1 5v209l-3 5-5 4-10 1-7-3-4-5-1-2-1-203-3-7-3-3-3-2h-236l-6 2-2 5-1 3v235l4 6 4 2 107 1h97l8 4 4 5 1 2v10l-3 5-5 4-6 2h-201l-15-4-11-7-7-7-6-10-3-12-1-5v-229l4-16 7-12 10-9 14-6z" fill="#217E33"/>
<path transform="translate(1082,498)" d="m0 0h73v28l-1 1h-11l10 37 2 6 6-19 14-50 1-3h34l7 24 12 42v4h2l4-16 7-25h-10v-29h53v29h-14l-1 8-12 42-10 37-4 13h-45l-13-47-1-7h-2l-3 13-7 24-5 17h-44l-3-7-10-36-15-53-1-3-12-1-1-1z" fill="#06650D"/>
<path transform="translate(1069,212)" d="m0 0 9 1 5 6 3 9 13 12 6 5h8l6 4 2 3v10l-3 4-1 5h-2v12h2l2 9 7 5 2 3-1 3-1 1v8l-5 4-6 1h-4l-9 11-6 4-3 3-1 4-5 6v9l-5 6h-9l-3-2-10 1-26 4h-5l-2 6-4 3-9 1-6-3 1-2 2 1-1-2v-9l2-4-4 2-3-2v-2l-4-2-13-9-1-3v-3l-5 4-3 2-5-1-3-3-1-7 3-5 1-5-6-23 1-5-4-1v-2l-4-1-1 2-2-3v-8l4-6 4-2 8-1 28-28 2-10 4-3h8l5 1 21-6 18-5 5-5zm-102 61-2 1v2l5-1v-2zm149 14 1 3zm-144 15 1 4 1-3zm2 6-1 4 2 7v9l4-2v-7l-3-10zm12 20v3h2l-1-3z" fill="#FDFDFD"/>
<path transform="translate(609,496)" d="m0 0h15l11 4 5 4h2l4-6h23v39h-24l-3-3-4-6-7-3h-12l-5 4 1 6 9 4 18 5 15 6 9 7 6 8 4 9 1 7v11l-3 12-5 10-4 5-11 7-7 3-6 1h-11l-11-2-10-6-3-1-1 6h-27v-39h26l6 8 8 3h12l4-2 1-6-4-4-29-10-11-6-9-9-6-12-1-6v-16l3-10 6-10 9-7 11-4z" fill="#135D19"/>
<path transform="translate(914,165)" d="m0 0v3l-2 5v235l4 6 4 2 107 1h97l8 4 4 5 1 2v10l-3 5-5 4-6 2h-201l-15-4-11-7-7-7-6-10-2-9 2 1 3 9 3 2h3l1-3 5-5 6-5 3-4 1-26 1-210h2l2-5z" fill="#56A140"/>
<path transform="translate(1029,174)" d="m0 0h19l9 3v5l-8 5h-2l1 4h2l2-4 3 1 2-4 4-2-1-3 5-1 8 3 1 5-3 3-4 1-2-4-3 2v6l-4-1-1 4-4 2-5-1-1-3-3 3 4 1-1 4-5-1-5-3 1 4-4 6-16 16-1 2-10 2-5 5-1 8-11 11h-2l-2 4h-2l-1 3-4 4h-2v2h-2l-1 3-7 1-6 3-4 6v8l-10 9-20 20-5 1-2-14v-18l2-21 6-17 8-16 10-14 17-17 15-10 14-7 11-4 16-4z" fill="#217E34"/>
<path transform="translate(1170,135)" d="m0 0 8 4 9 8 6 9 3 8 1 5v209l-3 5-5 4-10 1-7-3-4-5-1-2-1-203-3-7-3-3-3-2h-236l-6 2 1-2h2v-3l199-1h38l8-7 5-5 5-6-1-3-2-1z" fill="#4D9B36"/>
<path transform="translate(729,539)" d="m0 0h19l12 3 9 4 8 7 5 6 4 8 2 9v15l-4 13-5 8-4 5-9 6-9 4-9 2h-17l-16-4-10-6-5-5-6-8-4-11-1-5v-13l3-13 6-9 5-5 5-4 8-4zm6 24-5 5-2 7v16l2 8 3 5 2 1h7l5-5 2-10v-13l-2-9-5-5z" fill="#108418"/>
<path transform="translate(1014,539)" d="m0 0h19l12 3 9 4 7 5 8 11 3 9 1 8v9l-2 10-4 10-9 10-5 4-11 5-9 2h-17l-16-4-9-5-5-5-6-7-4-8-2-10v-13l2-10 5-10 6-7 11-7 9-3zm6 24-5 5-2 6v19l4 10 3 2h6l5-4 3-10v-15l-3-10-4-3z" fill="#108418"/>
<path transform="translate(1322,539)" d="m0 0h18l11 3 8 4 5 4 7 10 4 11v17l-1 1-50 1 2 7 1 3 4 2 7 3h10l15-4 9-4 1 1v21l-4 3-14 5-14 2h-15l-16-4-10-6-8-8-6-12-2-14 1-13 4-11 8-11 11-7 8-3zm9 20-5 4-3 8v3h21l-1-9-4-5-2-1z" fill="#118518"/>
<path transform="translate(1436,501)" d="m0 0h7l1 1v101h12v24h-66v-24h15l-1-74-14-1v-21l6-2z" fill="#108418"/>
<path transform="translate(1515,501)" d="m0 0h8l1 101 12 1v24h-66v-24h14v-75h-14v-22l34-4z" fill="#0F8418"/>
<path transform="translate(880,170)" d="m0 0h1v49l2 17 4-2 3-3h2l2-4 6-5 5-5 2-1 1-44h1v209l-1 26-6 7-10 10-4 1-4-5-4-11-1-5v-229z" fill="#258136"/>
<path transform="translate(833,539)" d="m0 0h16l10 3 6 4 2 1 3-6 1-1h16l1 1v35h-24l-3-8-4-4h-10l-5 4-3 10v8l3 10 5 5 6 2h14l10-3 6-4h2v24l-10 5-13 3-7 1h-16l-14-4-10-6-7-7-5-9-3-8-1-8v-9l2-11 6-12 9-9 12-6z" fill="#118518"/>
<path transform="translate(921,269)" d="m0 0h1l-1 16v18l1 14 6-3 28-28v-7l6-8 4 1-5 3-2 4v8l10 10 6 23-1 5-3 5 1 7 3 3 10 1 14 12 5 5 1 11-9 7-7 5-2 2-3 1 6 2 1 8-6 2h-3l-4-1-12-8-5-2-10-9-12-15-8-13-8-21-3-13-1-8v-23z" fill="#489830"/>
<path transform="translate(924,132)" d="m0 0h53l8 1-1 5-5 5-5 6-5 4-3 6-48 1v3l-5 4-2 4-2 1-1 44-6 4-5 5-5 6-5 4-2 2h-3l-2-18v-42l2-16 6-11 6-7 8-6 10-4z" fill="#086E36"/>
<path transform="translate(943,541)" d="m0 0h9v62h11v24h-60v-24h10l-1-37-9-1v-19l1-1z" fill="#108418"/>
<path transform="translate(1050,175)" d="m0 0h9l19 5 12 5 14 8 11 8 10 9 8 9 4 9 2 6-4 5-11 11h-5l-6-4h-8l-8-7-13-12-2-8-4-5-9-1-6 3-3 4-23 6-16 5-5-1h-8l-4 4-1 8-29 29h-8l1-2 7-1 1-2h2v-2h2l2-4 6-5 13-13 1-8 5-5 3-2h8l2-4 16-16 2-5-1-4 5 2 2 2h4v-3l-3-1 1-3h2l2 3 6-1 2-1 1-4 4 2-1-6 4-2 2 3 6-1-1-7-7-2-4 1 1 3-6 3v3l-4-1-2 3h-2l-1-4 8-5h2v-5l-7-1z" fill="#479830"/>
<path transform="translate(927,495)" d="m0 0h12l11 4 4 5 2 4v10l-3 6-6 5-8 3h-13l-10-4-5-6-2-6 1-9 4-6 4-3z" fill="#128519"/>
<path transform="translate(1058,224)" d="m0 0 2 1 4 8 1 4-8 21-3 2-25-14-8-5v-6l8-3z" fill="#48992E"/>
<path transform="translate(1e3 245)" d="m0 0 5 3v38l-14-1-13-2-3-4-2-4 1-4z" fill="#48992E"/>
<path transform="translate(1177,418)" d="m0 0h9l7 3v2h2l2 5v10l-3 6-5 3-5 2-6-1-6-3-4-5-1-2v-10l4-7z" fill="#207C42"/>
<path transform="translate(1033,329)" d="m0 0 6 2 24 14 5 3-1 5-36 6-7-7 3-9z" fill="#62AB2B"/>
<path transform="translate(1080,302)" d="m0 0 19 2 5 2 3 6-1 4-12 14-11 12h-3z" fill="#62AB2B"/>
<path transform="translate(1014,292)" d="m0 0 12 1 6 2 5 8 1 4-6 14-5-1-12-7-1-1z" fill="#4A9A2E"/>
<path transform="translate(1058,267)" d="m0 0 11 6 6 4v20l-18-2-4-9-2-1 1-5 4-10z" fill="#4A9A2E"/>
<path transform="translate(1196,169)" d="m0 0h1v209l-3 5-5 4-10 1-7-3-3-4 4 2 3 1h10l4-2 1-2h2l1-7 1-184z" fill="#B2D597"/>
<path transform="translate(1050,265)" d="m0 0 3 1-3 10-3 6-10 4-3 4-11-1-7-1 1-4 6-8 1-1 11-2 2-5 4-2z" fill="#4A9A2E"/>
<path transform="translate(1056,299)" d="m0 0 17 2-1 5-6 8-10 2-4 6-15 2-1-3 6-14 9-3z" fill="#47982E"/>
<path transform="translate(1081,231)" d="m0 0 4 2 16 15-3 8-13 2h-7l-1-1-1-10v-12z" fill="#4A9B2E"/>
<path transform="translate(976,292)" d="m0 0 5 1 13 10 2 1-1 4-11 15-5-1-4-15-2-7v-6z" fill="#4C9C30"/>
<path transform="translate(1e3 331)" d="m0 0h9l1 1 1 9v9l-4 3-6-1-13-10-3-3 2-6z" fill="#4A9A2F"/>
<path transform="translate(1104,268)" d="m0 0 8 1 1 2v22l-4 2-4-1-12-9 2-5z" fill="#62AB2B"/>
<path transform="translate(1018,245)" d="m0 0 4 1 23 13 1 3h-10l-5-5h-6l-5 5v12l-4 5h-2v-31z" fill="#4E9D2D"/>
<path transform="translate(1156,274)" d="m0 0 2 3 1 10v12l-1 11-4 18-6 16-6 11-6 9-8 10-7 8-18 13-19 10-12 4-12 3-10 1h-24l-8-1v-1h30l13-2 15-4 17-7 13-8 10-8 9-8 8-10 9-14 7-15 5-17 2-14z" fill="#FDFDFD"/>
<path transform="translate(1073,310)" d="m0 0h2v31l-4 3-6-2-22-13v-2h10l5 5h7l4-4 1-7-1-5z" fill="#62AB2B"/>
<path transform="translate(1e3 308)" d="m0 0 9 6 1 2v10l-1 1-20 2-2-4 12-16z" fill="#4A9B2E"/>
<path transform="translate(1089,261)" d="m0 0h9l2 3-1 4-9 13-5-2-5-4-2-9 2-4z" fill="#4C9C2D"/>
<path transform="translate(1136,428)" d="m0 0h1v10l-3 5-5 4h-215l-8-3 2-1 8 2h207l7-3 1-2 3-1 1-2z" fill="#67AE32"/>
<path transform="translate(1108,249)" d="m0 0 5 1 4 4v6l-5 5-6-1-4-4v-6l4-4z" fill="#45972F"/>
<path transform="translate(1068,217)" d="m0 0h8l3 3 1 5-3 5-3 2-6-1-4-5 1-6z" fill="#4B9B2E"/>
<path transform="translate(1113,297)" d="m0 0h6l4 4 1 5-3 5-8 1-4-4-1-5 3-5z" fill="#62AB2B"/>
<path transform="translate(968,275)" d="m0 0 6 1 3 4-1 7-3 3h-7l-4-4v-7z" fill="#499A2E"/>
<path transform="translate(1043,287)" d="m0 0 6 1 3 4-1 7-3 3h-6l-5-5 1-7z" fill="#4C9B2E"/>
<path transform="translate(1016,353)" d="m0 0 6 2 3 4-1 6-3 3h-8l-3-4v-6z" fill="#63AB2D"/>
<path transform="translate(981,287)" d="m0 0 18 2 7 1-1 4-5 7-5-2-14-10z" fill="#4E9D2D"/>
<path transform="translate(1069,236)" d="m0 0h2l2 15v8l-12 1 1-6z" fill="#4F9E2D"/>
<path transform="translate(1024,329)" d="m0 0h4l-3 9-5 11h-2l-2-12v-7z" fill="#46972E"/>
<path transform="translate(1090,288)" d="m0 0 9 6 6 5-2 2-18-2-1-4z" fill="#62AB2B"/>
<path transform="translate(1056,299)" d="m0 0 17 2-1 5-6 8-10 2-4 6-5 1h-8l3-2h9l2-5 3-3 7-3 2-2h3v-2h2l1-4h-15l-2 1z" fill="#62AB2B"/>
<path transform="translate(1050,175)" d="m0 0h9l15 4v1l-13-1 1 4-6 3v3l-4-1-2 3h-2l-1-4 8-5h2v-5l-7-1z" fill="#56A03E"/>
<path transform="translate(1006,229)" d="m0 0 2 1-4 4-1 8-29 29h-8l1-2 7-1 1-2h2v-2h2l2-4 6-5 13-13 1-8z" fill="#52A02D"/>
<path transform="translate(1010,233)" d="m0 0 6 1 1 7-2 2h-6l-2-2 1-7z" fill="#4C9C2D"/>
<path transform="translate(1075,346)" d="m0 0h5l2 2-1 7-6 1-3-3 1-6z" fill="#62AB2B"/>
<path transform="translate(977,327)" d="m0 0h5l3 3-1 5-2 2h-5l-2-2v-6h2z" fill="#509E30"/>
<path transform="translate(1060,318)" d="m0 0 5 1 1 7-4 3-5-2-1-5z" fill="#62AB2B"/>
<path transform="translate(1025,261)" d="m0 0h6l2 3-1 5-1 1h-7l-1-7z" fill="#4C9C2D"/>
<path transform="translate(1136,428)" d="m0 0h1v10l-3 5-5 4h-17l2-2h9l7-3 1-2 3-1 1-2z" fill="#62AB2B"/>
<path transform="translate(927,420)" d="m0 0 4 4 1 4-4 3-5-1-2-4v-3h3l2 3v-5z" fill="#207E34"/>
<path transform="translate(1108,249)" d="m0 0 5 1 4 4v6l-5 5-6-1-4-4v-6l4-4zm-1 2-4 4 1 6 5 3 4-2 2-2v-7l-2-2z" fill="#62AB2B"/>
<path transform="translate(1024,329)" d="m0 0h4l-2 4v-2l-8 1 1 11 1 1 4-8 1 2-5 11h-2l-2-12v-7z" fill="#62AB2B"/>
<path transform="translate(914,424)" d="m0 0h2v2h3v5h4l-2 4-4-1-1-3-3-1v-5z" fill="#207E34"/>
<path transform="translate(1008,296)" d="m0 0 2 1v11l-4-1-3-2 2-5z" fill="#509E2D"/>
<path transform="translate(1014,318)" d="m0 0 6 2 5 3v2l-10 1z" fill="#55A22C"/>
<path transform="translate(1066,263)" d="m0 0h7l2 7-2 1-9-5v-2z" fill="#56A32C"/>
<path transform="translate(984,257)" d="m0 0h2l-2 4-10 10h-8l1-2 7-1 1-2h2v-2h2l2-4z" fill="#4F9E2D"/>
<path transform="translate(999,353)" d="m0 0 9 5v10l-4-2v-8l-4-2z" fill="#B6D79E"/>
<path transform="translate(1080,281)" d="m0 0 4 2 2 3-5 7h-1z" fill="#5AA52C"/>
<path transform="translate(1034,331)" d="m0 0 5 2-3 5-6 3 3-9z" fill="#45972F"/>
<path transform="translate(1169,381)" d="m0 0 4 2 12 2v3l-10-1-6-5z" fill="#8EC267"/>
<path transform="translate(991,547)" d="m0 0 2 1-11 11-3 5-1-2 6-9z" fill="#3D9628"/>
<path transform="translate(963,386)" d="m0 0 4 1 11 7 1 3-5-2-11-8z" fill="#8EC267"/>
<path transform="translate(987,338)" d="m0 0h2v2l4 1 9 7-1 2-13-9z" fill="#9FCB7D"/>
<path transform="translate(1136,428)" d="m0 0h1v10l-3 5-5 4-4-1 6-3 4-6z" fill="#FDFDFD"/>
<path transform="translate(593,501)" d="m0 0 2 1-10 9-4 3 2-5 8-7z" fill="#2B7E29"/>
<path transform="translate(900,138)" d="m0 0 2 1-12 12-2-1 6-7z" fill="#358B38"/>
<path transform="translate(1008,296)" d="m0 0 2 1v11l-4-1 2-2-1-8z" fill="#60AA2B"/>
</svg>
